#!OML:ASF E:\emotionWalksFemale\Project 1\Capture day 1\Session 1\Female1.ASF
:FULLY-SPECIFIED
:DEGREES
3259
root 9.21431 14.8246 21.8409 -180.301 -172.378 -183.844
lowerback 11.6388 -2.09274 0.750016
upperback -3.55267 -2.64817 0.423321
thorax -10.3951 -1.30106 0.574342
lowerneck -4.78936 2.67526 -1.20238
upperneck 12.7112 3.24964 3.75005
head 4.50513 1.75188 1.51902
rclavicle 2.59911e-014 6.36111e-015
rhumerus -51.6599 4.3924 -78.7384
rradius 62.7871
rwrist 9.20503
rhand 175.084 -232.793
rfingers 7.12502
rthumb -159.125 -261.69
lclavicle 2.59911e-014 6.36111e-015
lhumerus -43.0349 6.67542 79.3092
lradius 59.7054
lwrist -0.00296975
lhand -8.65453 -27.7651
lfingers 7.12502
lthumb 17.279 1.4868
rfemur 6.91351 5.08532 34.5362
rtibia 28.0036
rfoot -21.1476 -11.7466
rtoes 8.97534
lfemur -36.7736 -20.7167 -4.67747
ltibia 26.0425
lfoot -20.7065 24.9529
ltoes -4.79131
3260
root 9.2288 14.8135 21.907 -180.056 -172.29 -184.162
lowerback 11.5252 -2.08516 1.06796
upperback -3.57344 -2.57935 0.528576
thorax -10.361 -1.28505 0.490934
lowerneck -4.94256 2.66501 -1.35577
upperneck 12.7441 3.22602 3.94783
head 4.53512 1.74597 1.6067
rclavicle -4.27139e-014 5.96354e-015
rhumerus -51.5147 4.39182 -78.827
rradius 62.3793
rwrist 8.9014
rhand 175.041 -231.869
rfingers 7.12502
rthumb -159.167 -260.771
lclavicle -4.27139e-014 5.96354e-015
lhumerus -42.8975 6.84013 79.2626
lradius 59.5407
lwrist -0.0281101
lhand -8.69213 -28.1139
lfingers 7.12502
lthumb 17.2428 1.14112
rfemur 7.02125 5.06469 34.7327
rtibia 27.7926
rfoot -20.5422 -11.6404
rtoes 6.90207
lfemur -36.9433 -20.4816 -4.41427
ltibia 26.0207
lfoot -21.2128 25.0141
ltoes -2.81352
3261
root 9.24235 14.8131 21.9843 -179.864 -172.229 -184.248
lowerback 11.416 -2.05031 1.19902
upperback -3.69891 -2.51042 0.561172
thorax -10.44 -1.25961 0.437639
lowerneck -4.9424 2.63267 -1.31532
upperneck 12.896 3.18677 3.85024
head 4.5852 1.72348 1.57036
rclavicle 3.66261e-014 -1.15295e-014
rhumerus -51.6739 4.45647 -78.9419
rradius 62.2119
rwrist 8.37152
rhand 175.004 -231.858
rfingers 7.12502
rthumb -159.203 -260.764
lclavicle 3.66261e-014 -1.15295e-014
lhumerus -43.0248 7.06522 79.233
lradius 59.5236
lwrist -0.232782
lhand -8.64039 -28.1703
lfingers 7.12502
lthumb 17.2926 1.08036
rfemur 7.16199 4.99302 34.652
rtibia 27.6954
rfoot -20.552 -11.3808
rtoes 6.73186
lfemur -36.9356 -20.5114 -4.38779
ltibia 25.918
lfoot -22.52 24.9887
ltoes 1.06038
3262
root 9.25692 14.8163 22.0685 -179.705 -172.198 -184.136
lowerback 11.3133 -2.02731 1.12142
upperback -3.87904 -2.49341 0.555686
thorax -10.576 -1.24689 0.472951
lowerneck -4.91626 2.59466 -1.11443
upperneck 13.1259 3.14548 3.57075
head 4.66105 1.69687 1.45236
rclavicle 4.19933e-015 1.35174e-014
rhumerus -51.8938 4.58301 -78.9991
rradius 62.3398
rwrist 8.27834
rhand 174.95 -232.018
rfingers 7.12502
rthumb -159.255 -260.93
lclavicle 4.19933e-015 1.35174e-014
lhumerus -43.3228 7.33597 79.1837
lradius 59.5461
lwrist -0.461922
lhand -8.66457 -28.328
lfingers 7.12502
lthumb 17.2693 0.924704
rfemur 7.38663 4.96779 34.3677
rtibia 27.5637
rfoot -20.7143 -11.1069
rtoes 7.61024
lfemur -36.8435 -20.4945 -4.74045
ltibia 25.8367
lfoot -23.2627 25.065
ltoes 3.26907
3263
root 9.26918 14.8022 22.1348 -179.592 -172.048 -184.525
lowerback 11.5292 -2.00985 1.35672
upperback -3.97401 -2.4116 0.726297
thorax -10.8128 -1.21563 0.519389
lowerneck -4.7966 2.61957 -1.26218
upperneck 13.08 3.17101 3.75019
head 4.62014 1.71181 1.53031
rclavicle -1.67973e-014 1.07344e-014
rhumerus -51.8379 4.66692 -79.0163
rradius 62.0966
rwrist 8.86335
rhand 174.937 -231.313
rfingers 7.12502
rthumb -159.267 -260.226
lclavicle -1.67973e-014 1.07344e-014
lhumerus -43.3586 7.42142 79.1503
lradius 59.3442
lwrist -0.561623
lhand -8.99394 -28.6779
lfingers 7.12502
lthumb 16.9523 0.602253
rfemur 7.62427 5.21961 34.7855
rtibia 27.3862
rfoot -20.2827 -11.2764
rtoes 6.7168
lfemur -36.7972 -20.2256 -4.48763
ltibia 25.7531
lfoot -22.4537 26.2532
ltoes -5.62868
3264
root 9.2806 14.8058 22.236 -179.499 -171.963 -184.711
lowerback 11.1679 -1.99592 1.54289
upperback -3.98517 -2.36352 0.804939
thorax -10.6151 -1.20352 0.475818
lowerneck -4.61283 2.70932 -0.940059
upperneck 12.9176 3.30466 3.43529
head 4.54799 1.77251 1.38232
rclavicle -2.03257e-014 1.98785e-015
rhumerus -51.8214 4.70568 -79.0101
rradius 61.7756
rwrist 9.53109
rhand 175.544 -230.862
rfingers 7.12502
rthumb -158.684 -259.71
lclavicle -2.03257e-014 1.98785e-015
lhumerus -43.3651 7.43248 79.1345
lradius 59.0579
lwrist -0.518779
lhand -9.14258 -28.7693
lfingers 7.12502
lthumb 16.8092 0.523142
rfemur 8.06433 5.05055 34.7924
rtibia 27.2029
rfoot -20.0416 -11.1782
rtoes 4.93231
lfemur -36.5244 -20.1439 -4.59847
ltibia 25.6941
lfoot -23.5513 25.8221
ltoes 1.42945
3265
root 9.29217 14.8111 22.3168 -179.332 -172.04 -184.706
lowerback 11.1202 -1.99007 1.54577
upperback -4.09065 -2.35639 0.796461
thorax -10.7048 -1.20098 0.464916
lowerneck -4.38372 2.65935 -1.32638
upperneck 12.6609 3.2151 3.94045
head 4.41648 1.73646 1.58827
rclavicle 9.1764e-014 8.74653e-015
rhumerus -51.774 4.52661 -78.9722
rradius 62.0805
rwrist 9.18169
rhand 176.36 -231.475
rfingers 7.12502
rthumb -157.9 -260.232
lclavicle 9.1764e-014 8.74653e-015
lhumerus -43.3111 7.39067 79.1083
lradius 58.9119
lwrist -0.449514
lhand -9.08328 -28.5659
lfingers 7.12502
lthumb 16.8663 0.721608
rfemur 8.29361 4.93989 34.6583
rtibia 26.9548
rfoot -19.8511 -11.0062
rtoes 5.01243
lfemur -36.4858 -19.7288 -5.05519
ltibia 25.7288
lfoot -22.6793 26.447
ltoes -4.08467
3266
root 9.30726 14.8084 22.3855 -179.185 -172.084 -184.685
lowerback 11.2234 -1.98445 1.5502
upperback -4.143 -2.3483 0.768047
thorax -10.8261 -1.19828 0.435768
lowerneck -4.62283 2.6143 -1.37343
upperneck 12.749 3.13381 4.13364
head 4.4815 1.70779 1.65665
rclavicle 2.66371e-014 -9.54166e-015
rhumerus -51.5235 4.31214 -79.0013
rradius 61.6539
rwrist 9.75882
rhand 175.64 -230.784
rfingers 7.12502
rthumb -158.592 -259.621
lclavicle 2.66371e-014 -9.54166e-015
lhumerus -43.1911 7.35817 79.0196
lradius 58.897
lwrist -0.519887
lhand -9.04499 -28.552
lfingers 7.12502
lthumb 16.9031 0.732451
rfemur 8.5273 5.01903 34.5843
rtibia 26.625
rfoot -19.6286 -10.9144
rtoes 5.99786
lfemur -36.4903 -19.3177 -5.43752
ltibia 25.7613
lfoot -22.6672 26.458
ltoes -4.45469
3267
root 9.32521 14.8093 22.493 -179.164 -171.877 -184.642
lowerback 10.9075 -1.9464 1.59218
upperback -4.10547 -2.29911 0.758597
thorax -10.5979 -1.17904 0.378725
lowerneck -4.85296 2.64948 -1.33423
upperneck 12.8902 3.17586 4.1291
head 4.56308 1.73284 1.65697
rclavicle -3.49116e-014 -2.38542e-015
rhumerus -51.2706 4.3764 -79.087
rradius 60.8517
rwrist 10.4014
rhand 175.008 -230.177
rfingers 7.12502
rthumb -159.199 -259.082
lclavicle -3.49116e-014 -2.38542e-015
lhumerus -43.3003 7.45689 78.9564
lradius 58.7667
lwrist -0.493735
lhand -9.25183 -29.1646
lfingers 7.12502
lthumb 16.704 0.136678
rfemur 9.10812 5.00054 34.3299
rtibia 26.3516
rfoot -19.5757 -10.5655
rtoes 6.26905
lfemur -36.0288 -19.1889 -5.86237
ltibia 25.7502
lfoot -22.2127 27.3292
ltoes -9.99853
3268
root 9.3418 14.8079 22.5961 -179.046 -171.814 -184.651
lowerback 10.7604 -1.94668 1.6406
upperback -4.2482 -2.29202 0.783856
thorax -10.6704 -1.17879 0.375901
lowerneck -4.7234 2.64748 -1.19777
upperneck 12.9391 3.18765 3.89398
head 4.5627 1.73046 1.56154
rclavicle -5.89148e-014 1.55052e-014
rhumerus -51.387 4.50747 -79.1205
rradius 60.3961
rwrist 10.8262
rhand 174.882 -229.744
rfingers 7.12502
rthumb -159.32 -258.662
lclavicle -5.89148e-014 1.55052e-014
lhumerus -43.6657 7.48286 78.9512
lradius 58.7289
lwrist -0.421385
lhand -9.5038 -29.7187
lfingers 7.12502
lthumb 16.4614 -0.397098
rfemur 9.54106 4.8681 34.1323
rtibia 26.0859
rfoot -19.3777 -10.305
rtoes 5.32838
lfemur -35.7953 -18.9435 -6.2089
ltibia 25.7811
lfoot -24.4456 26.0161
ltoes 1.51124
3269
root 9.35779 14.8123 22.6985 -178.897 -171.765 -184.597
lowerback 10.7261 -1.92268 1.66613
upperback -4.50644 -2.25683 0.763272
thorax -10.9403 -1.1655 0.338605
lowerneck -4.62961 2.63145 -0.77121
upperneck 13.1993 3.18058 3.4073
head 4.64349 1.71925 1.34411
rclavicle -1.00635e-014 6.36111e-015
rhumerus -51.9032 4.71894 -79.2323
rradius 60.3837
rwrist 10.5402
rhand 174.99 -229.74
rfingers 7.12502
rthumb -159.216 -258.647
lclavicle -1.00635e-014 6.36111e-015
lhumerus -44.1642 7.52965 78.8285
lradius 58.8515
lwrist -0.567185
lhand -9.50898 -29.7816
lfingers 7.12502
lthumb 16.4564 -0.459553
rfemur 10.0606 4.91764 33.9555
rtibia 25.5553
rfoot -18.8543 -10.3759
rtoes 3.37244
lfemur -35.7223 -18.5767 -6.67905
ltibia 26.1028
lfoot -24.1759 25.8838
ltoes 0.0540214
